  0
SECTION
  2
HEADER
  9
$ACADVER
  1
AC1009
  9
$EXTMIN
 10
0.0
 20
0.0
 30
0.0
  9
$EXTMAX
 10
1000.0
 20
1000.0
 30
0.0
  9
$FILLMODE
 70
 0
  9
$SPLFRAME
 70
 1
  0
ENDSEC
  0
SECTION
  2
TABLES
  0
TABLE
  2
LAYER
 70
1
  0
LAYER
  2
0
 70
     0
 62
     7
  6
CONTINUOUS
  0
ENDTAB
  0
ENDSEC
  0
SECTION
  2
ENTITIES
  0
LINE
  8
0
 62
     0
 10
0.14056
 20
0.2583
 30
0.0
 11
0.256646
 21
5.02345
 31
0.0
  0
LINE
  8
0
 62
     0
 10
0.256646
 20
5.02345
 30
0.0
 11
0.595313
 21
9.46083
 31
0.0
  0
LINE
  8
0
 62
     0
 10
0.595313
 20
9.46083
 30
0.0
 11
1.14201
 21
13.5824
 31
0.0
  0
LINE
  8
0
 62
     0
 10
1.14201
 20
13.5824
 30
0.0
 11
1.88152
 21
17.3997
 31
0.0
  0
LINE
  8
0
 62
     0
 10
1.88152
 20
17.3997
 30
0.0
 11
2.79896
 21
20.9242
 31
0.0
  0
LINE
  8
0
 62
     0
 10
2.79896
 20
20.9242
 30
0.0
 11
3.87978
 21
24.1677
 31
0.0
  0
LINE
  8
0
 62
     0
 10
3.87978
 20
24.1677
 30
0.0
 11
5.10879
 21
27.1413
 31
0.0
  0
LINE
  8
0
 62
     0
 10
5.10879
 20
27.1413
 30
0.0
 11
6.47171
 21
29.8566
 31
0.0
  0
LINE
  8
0
 62
     0
 10
6.47171
 20
29.8566
 30
0.0
 11
7.95306
 21
32.3258
 31
0.0
  0
LINE
  8
0
 62
     0
 10
7.95306
 20
32.3258
 30
0.0
 11
9.53823
 21
34.5596
 31
0.0
  0
LINE
  8
0
 62
     0
 10
9.53823
 20
34.5596
 30
0.0
 11
11.2127
 21
36.57
 31
0.0
  0
LINE
  8
0
 62
     0
 10
11.2127
 20
36.57
 30
0.0
 11
12.9613
 21
38.3685
 31
0.0
  0
LINE
  8
0
 62
     0
 10
12.9613
 20
38.3685
 30
0.0
 11
14.769
 21
39.9665
 31
0.0
  0
LINE
  8
0
 62
     0
 10
14.769
 20
39.9665
 30
0.0
 11
16.6214
 21
41.3762
 31
0.0
  0
LINE
  8
0
 62
     0
 10
16.6214
 20
41.3762
 30
0.0
 11
18.5033
 21
42.6085
 31
0.0
  0
LINE
  8
0
 62
     0
 10
18.5033
 20
42.6085
 30
0.0
 11
20.4004
 21
43.6749
 31
0.0
  0
LINE
  8
0
 62
     0
 10
20.4004
 20
43.6749
 30
0.0
 11
22.2974
 21
44.5872
 31
0.0
  0
LINE
  8
0
 62
     0
 10
22.2974
 20
44.5872
 30
0.0
 11
24.1793
 21
45.357
 31
0.0
  0
LINE
  8
0
 62
     0
 10
24.1793
 20
45.357
 30
0.0
 11
26.0317
 21
45.9955
 31
0.0
  0
LINE
  8
0
 62
     0
 10
26.0317
 20
45.9955
 30
0.0
 11
27.8395
 21
46.5148
 31
0.0
  0
LINE
  8
0
 62
     0
 10
27.8395
 20
46.5148
 30
0.0
 11
29.588
 21
46.9261
 31
0.0
  0
LINE
  8
0
 62
     0
 10
29.588
 20
46.9261
 30
0.0
 11
31.2625
 21
47.2412
 31
0.0
  0
LINE
  8
0
 62
     0
 10
31.2625
 20
47.2412
 30
0.0
 11
32.8477
 21
47.4712
 31
0.0
  0
LINE
  8
0
 62
     0
 10
32.8477
 20
47.4712
 30
0.0
 11
34.329
 21
47.6278
 31
0.0
  0
LINE
  8
0
 62
     0
 10
34.329
 20
47.6278
 30
0.0
 11
35.6919
 21
47.7231
 31
0.0
  0
LINE
  8
0
 62
     0
 10
35.6919
 20
47.7231
 30
0.0
 11
36.921
 21
47.7679
 31
0.0
  0
LINE
  8
0
 62
     0
 10
36.921
 20
47.7679
 30
0.0
 11
38.0019
 21
47.7742
 31
0.0
  0
LINE
  8
0
 62
     0
 10
38.0019
 20
47.7742
 30
0.0
 11
38.9191
 21
47.7538
 31
0.0
  0
LINE
  8
0
 62
     0
 10
38.9191
 20
47.7538
 30
0.0
 11
39.6586
 21
47.7174
 31
0.0
  0
LINE
  8
0
 62
     0
 10
39.6586
 20
47.7174
 30
0.0
 11
40.2054
 21
47.6772
 31
0.0
  0
LINE
  8
0
 62
     0
 10
40.2054
 20
47.6772
 30
0.0
 11
40.544
 21
47.6444
 31
0.0
  0
LINE
  8
0
 62
     0
 10
40.544
 20
47.6444
 30
0.0
 11
40.6605
 21
47.631
 31
0.0
  0
LINE
  8
0
 62
     0
 10
40.6605
 20
47.631
 30
0.0
 11
40.5874
 21
47.4331
 31
0.0
  0
LINE
  8
0
 62
     0
 10
40.5874
 20
47.4331
 30
0.0
 11
40.3751
 21
46.8665
 31
0.0
  0
LINE
  8
0
 62
     0
 10
40.3751
 20
46.8665
 30
0.0
 11
40.0343
 21
45.9719
 31
0.0
  0
LINE
  8
0
 62
     0
 10
40.0343
 20
45.9719
 30
0.0
 11
39.5743
 21
44.7904
 31
0.0
  0
LINE
  8
0
 62
     0
 10
39.5743
 20
44.7904
 30
0.0
 11
39.0066
 21
43.3624
 31
0.0
  0
LINE
  8
0
 62
     0
 10
39.0066
 20
43.3624
 30
0.0
 11
38.3406
 21
41.7283
 31
0.0
  0
LINE
  8
0
 62
     0
 10
38.3406
 20
41.7283
 30
0.0
 11
37.5871
 21
39.9295
 31
0.0
  0
LINE
  8
0
 62
     0
 10
37.5871
 20
39.9295
 30
0.0
 11
36.7563
 21
38.0065
 31
0.0
  0
LINE
  8
0
 62
     0
 10
36.7563
 20
38.0065
 30
0.0
 11
35.8588
 21
35.9999
 31
0.0
  0
LINE
  8
0
 62
     0
 10
35.8588
 20
35.9999
 30
0.0
 11
34.9042
 21
33.9507
 31
0.0
  0
LINE
  8
0
 62
     0
 10
34.9042
 20
33.9507
 30
0.0
 11
33.9034
 21
31.8992
 31
0.0
  0
LINE
  8
0
 62
     0
 10
33.9034
 20
31.8992
 30
0.0
 11
32.8665
 21
29.8863
 31
0.0
  0
LINE
  8
0
 62
     0
 10
32.8665
 20
29.8863
 30
0.0
 11
31.8039
 21
27.9532
 31
0.0
  0
LINE
  8
0
 62
     0
 10
31.8039
 20
27.9532
 30
0.0
 11
30.7261
 21
26.1402
 31
0.0
  0
LINE
  8
0
 62
     0
 10
30.7261
 20
26.1402
 30
0.0
 11
29.6429
 21
24.4879
 31
0.0
  0
LINE
  8
0
 62
     0
 10
29.6429
 20
24.4879
 30
0.0
 11
28.5654
 21
23.0373
 31
0.0
  0
LINE
  8
0
 62
     0
 10
28.5654
 20
23.0373
 30
0.0
 11
27.8153
 21
22.1387
 31
0.0
  0
LINE
  8
0
 62
     0
 10
27.8153
 20
22.1387
 30
0.0
 11
26.9938
 21
21.2209
 31
0.0
  0
LINE
  8
0
 62
     0
 10
26.9938
 20
21.2209
 30
0.0
 11
26.1074
 21
20.2866
 31
0.0
  0
LINE
  8
0
 62
     0
 10
26.1074
 20
20.2866
 30
0.0
 11
25.1622
 21
19.3394
 31
0.0
  0
LINE
  8
0
 62
     0
 10
25.1622
 20
19.3394
 30
0.0
 11
24.1644
 21
18.3823
 31
0.0
  0
LINE
  8
0
 62
     0
 10
24.1644
 20
18.3823
 30
0.0
 11
23.1203
 21
17.4182
 31
0.0
  0
LINE
  8
0
 62
     0
 10
23.1203
 20
17.4182
 30
0.0
 11
22.0362
 21
16.4508
 31
0.0
  0
LINE
  8
0
 62
     0
 10
22.0362
 20
16.4508
 30
0.0
 11
20.9183
 21
15.4827
 31
0.0
  0
LINE
  8
0
 62
     0
 10
20.9183
 20
15.4827
 30
0.0
 11
19.7726
 21
14.517
 31
0.0
  0
LINE
  8
0
 62
     0
 10
19.7726
 20
14.517
 30
0.0
 11
18.6055
 21
13.5576
 31
0.0
  0
LINE
  8
0
 62
     0
 10
18.6055
 20
13.5576
 30
0.0
 11
17.4235
 21
12.6067
 31
0.0
  0
LINE
  8
0
 62
     0
 10
17.4235
 20
12.6067
 30
0.0
 11
16.2322
 21
11.6678
 31
0.0
  0
LINE
  8
0
 62
     0
 10
16.2322
 20
11.6678
 30
0.0
 11
15.0386
 21
10.7444
 31
0.0
  0
LINE
  8
0
 62
     0
 10
15.0386
 20
10.7444
 30
0.0
 11
13.8483
 21
9.83918
 31
0.0
  0
LINE
  8
0
 62
     0
 10
13.8483
 20
9.83918
 30
0.0
 11
12.6679
 21
8.95548
 31
0.0
  0
LINE
  8
0
 62
     0
 10
12.6679
 20
8.95548
 30
0.0
 11
11.5034
 21
8.09625
 31
0.0
  0
LINE
  8
0
 62
     0
 10
11.5034
 20
8.09625
 30
0.0
 11
10.3611
 21
7.26479
 31
0.0
  0
LINE
  8
0
 62
     0
 10
10.3611
 20
7.26479
 30
0.0
 11
9.2475
 21
6.46444
 31
0.0
  0
LINE
  8
0
 62
     0
 10
9.2475
 20
6.46444
 30
0.0
 11
8.16868
 21
5.69782
 31
0.0
  0
LINE
  8
0
 62
     0
 10
8.16868
 20
5.69782
 30
0.0
 11
7.13052
 21
4.96856
 31
0.0
  0
LINE
  8
0
 62
     0
 10
7.13052
 20
4.96856
 30
0.0
 11
6.13999
 21
4.27965
 31
0.0
  0
LINE
  8
0
 62
     0
 10
6.13999
 20
4.27965
 30
0.0
 11
5.2027
 21
3.63407
 31
0.0
  0
LINE
  8
0
 62
     0
 10
5.2027
 20
3.63407
 30
0.0
 11
4.32495
 21
3.0351
 31
0.0
  0
LINE
  8
0
 62
     0
 10
4.32495
 20
3.0351
 30
0.0
 11
3.51333
 21
2.48576
 31
0.0
  0
LINE
  8
0
 62
     0
 10
3.51333
 20
2.48576
 30
0.0
 11
2.7735
 21
1.98934
 31
0.0
  0
LINE
  8
0
 62
     0
 10
2.7735
 20
1.98934
 30
0.0
 11
2.11237
 21
1.54914
 31
0.0
  0
LINE
  8
0
 62
     0
 10
2.11237
 20
1.54914
 30
0.0
 11
1.53591
 21
1.1678
 31
0.0
  0
LINE
  8
0
 62
     0
 10
1.53591
 20
1.1678
 30
0.0
 11
1.05006
 21
0.848653
 31
0.0
  0
LINE
  8
0
 62
     0
 10
1.05006
 20
0.848653
 30
0.0
 11
0.661458
 21
0.595313
 31
0.0
  0
LINE
  8
0
 62
     0
 10
0.661458
 20
0.595313
 30
0.0
 11
0.37604
 21
0.410104
 31
0.0
  0
LINE
  8
0
 62
     0
 10
0.37604
 20
0.410104
 30
0.0
 11
0.200422
 21
0.296995
 31
0.0
  0
LINE
  8
0
 62
     0
 10
0.200422
 20
0.296995
 30
0.0
 11
0.14056
 21
0.2583
 31
0.0
  0
ENDSEC
  0
EOF
